<mxfile host="app.diagrams.net" agent="Mozilla/5.0 (Windows NT 10.0; Win64; x64) AppleWebKit/537.36 (KHTML, like Gecko) Chrome/136.0.0.0 Safari/537.36 Edg/136.0.0.0" version="27.0.9">
  <diagram name="Page-1" id="ch1Dm2VxDqaLV5PgKlJN">
    <mxGraphModel dx="1182" dy="655" grid="0" gridSize="10" guides="1" tooltips="1" connect="1" arrows="1" fold="1" page="1" pageScale="1" pageWidth="850" pageHeight="1100" math="0" shadow="0">
      <root>
        <mxCell id="0" />
        <mxCell id="1" parent="0" />
        <mxCell id="Bqcsnk6o5HV2CxwZ6nPX-1" value="&lt;font style=&quot;font-size: 15px;&quot;&gt;FY2025 &lt;b&gt;Active Stores&lt;/b&gt;&lt;/font&gt;&lt;font style=&quot;&quot;&gt; &lt;br&gt;&lt;span style=&quot;font-size: 28px;&quot;&gt;&lt;b&gt;327&lt;/b&gt;&lt;/span&gt;&lt;br&gt;&lt;font style=&quot;&quot;&gt;&lt;span style=&quot;font-size: 15px;&quot;&gt;v &lt;b&gt;260&lt;/b&gt; Last Year&lt;/span&gt;&lt;br&gt;&lt;span style=&quot;font-size: 15px;&quot;&gt;&lt;font style=&quot;color: rgb(0, 102, 0);&quot;&gt;â–² 25.76%&lt;/font&gt;&lt;/span&gt;&lt;/font&gt;&lt;/font&gt;" style="text;html=1;align=center;verticalAlign=middle;whiteSpace=wrap;rounded=0;" vertex="1" parent="1">
          <mxGeometry x="24" y="99" width="142" height="105" as="geometry" />
        </mxCell>
      </root>
    </mxGraphModel>
  </diagram>
</mxfile>
